name D:\school\WTK\thesis\model\3dpredictsim\Results\MidTarsalJoint\Fal_s1_bCst_PF_Natali2010_ls150_MT_k2000_MTP_T2_ig24.mot
datacolumns 128
datarows 4
range 1.10979026 1.14308397
endheader
time	pelvis_tilt	pelvis_list	pelvis_rotation	pelvis_tx	pelvis_ty	pelvis_tz	hip_flexion_l	hip_adduction_l	hip_rotation_l	hip_flexion_r	hip_adduction_r	hip_rotation_r	knee_angle_l	knee_angle_r	ankle_angle_l	ankle_angle_r	subtalar_angle_l	subtalar_angle_r	mtj_angle_l	mtj_angle_r	mtp_angle_l	mtp_angle_r	lumbar_extension	lumbar_bending	lumbar_rotation	arm_flex_l	arm_add_l	arm_rot_l	arm_flex_r	arm_add_r	arm_rot_r	elbow_flex_l	elbow_flex_r	pro_sup_l	pro_sup_r	glut_med1_l/activation	glut_med2_l/activation	glut_med3_l/activation	glut_min1_l/activation	glut_min2_l/activation	glut_min3_l/activation	semimem_l/activation	semiten_l/activation	bifemlh_l/activation	bifemsh_l/activation	sar_l/activation	add_long_l/activation	add_brev_l/activation	add_mag1_l/activation	add_mag2_l/activation	add_mag3_l/activation	tfl_l/activation	pect_l/activation	grac_l/activation	glut_max1_l/activation	glut_max2_l/activation	glut_max3_l/activation	iliacus_l/activation	psoas_l/activation	quad_fem_l/activation	gem_l/activation	peri_l/activation	rect_fem_l/activation	vas_med_l/activation	vas_int_l/activation	vas_lat_l/activation	med_gas_l/activation	lat_gas_l/activation	soleus_l/activation	tib_post_l/activation	flex_dig_l/activation	flex_hal_l/activation	tib_ant_l/activation	per_brev_l/activation	per_long_l/activation	per_tert_l/activation	ext_dig_l/activation	ext_hal_l/activation	ercspn_l/activation	intobl_l/activation	extobl_l/activation	glut_med1_r/activation	glut_med2_r/activation	glut_med3_r/activation	glut_min1_r/activation	glut_min2_r/activation	glut_min3_r/activation	semimem_r/activation	semiten_r/activation	bifemlh_r/activation	bifemsh_r/activation	sar_r/activation	add_long_r/activation	add_brev_r/activation	add_mag1_r/activation	add_mag2_r/activation	add_mag3_r/activation	tfl_r/activation	pect_r/activation	grac_r/activation	glut_max1_r/activation	glut_max2_r/activation	glut_max3_r/activation	iliacus_r/activation	psoas_r/activation	quad_fem_r/activation	gem_r/activation	peri_r/activation	rect_fem_r/activation	vas_med_r/activation	vas_int_r/activation	vas_lat_r/activation	med_gas_r/activation	lat_gas_r/activation	soleus_r/activation	tib_post_r/activation	flex_dig_r/activation	flex_hal_r/activation	tib_ant_r/activation	per_brev_r/activation	per_long_r/activation	per_tert_r/activation	ext_dig_r/activation	ext_hal_r/activation	ercspn_r/activation	intobl_r/activation	extobl_r/activation	
          1.10979026	         -2.92935903	         -1.98670385	          4.63357991	          1.38723782	          0.92078336	         -0.00177451	        -17.57195577	         -0.79853909	          6.54921373	         29.93533614	          3.22264394	         -2.08954793	         -4.79359207	        -13.22837107	          0.08170281	          6.37743989	          7.56277444	         -4.15479654	          0.87499721	         -0.00445502	         19.74149598	         -0.95433543	         -2.35362218	          0.17957211	         -1.84861649	          4.62833056	        -13.45038218	         14.84762249	         -4.29392153	        -13.46780153	          5.51078417	         33.86249380	         18.21711676	         86.51662706	         86.51662706	          0.33378709	          0.11681482	          0.08319333	          0.35934995	          0.23023892	          0.12310441	          0.05000132	          0.05000038	          0.05000031	          0.07364993	          0.11685496	          0.05000016	          0.05000013	          0.05000019	          0.05000055	          0.05000055	          0.35482615	          0.05000068	          0.05000055	          0.05016281	          0.05000965	          0.05000120	          0.42873235	          0.64596800	          0.05000037	          0.05001234	          0.05949850	          0.24072744	          0.05000049	          0.05000050	          0.05000049	          0.33488311	          0.46103128	          0.31614799	          0.29759482	          0.32383369	          0.39923527	          0.05000007	          0.05461324	          0.12037924	          0.05000038	          0.05000010	          0.05000037	          0.05000001	          0.05000002	          0.05000003	          0.07020558	          0.05000372	          0.05924756	          0.05000172	          0.05000161	          0.05002245	          0.06964952	          0.05932335	          0.22928702	          0.05006702	          0.05000129	          0.13066051	          0.17502948	          0.15749390	          0.14234584	          0.11541655	          0.05005732	          0.05013373	          0.10143061	          0.05924877	          0.08992247	          0.10004522	          0.05000017	          0.05000033	          0.17222824	          0.05000048	          0.05000191	          0.05000019	          0.05000115	          0.05000149	          0.05000078	          0.05000006	          0.05000014	          0.05000002	          0.05924814	          0.05000503	          0.05361405	          0.45890915	          0.27243282	          0.20275686	          0.08722560	          0.43200975	          0.15683145	          0.07020714	          0.12786806	          0.12043711	
          1.12088816	         -2.92981200	         -2.08496081	          4.93767624	          1.40357954	          0.91971404	         -0.00157611	        -17.51690253	         -1.09892895	          6.34363672	         29.39483905	          3.57534719	         -1.89853373	         -6.56189204	        -12.75474871	         -0.50874347	          6.01596487	          8.50307880	         -4.55030838	          0.71478767	         -0.00259193	         20.95454918	         -0.94625400	         -2.18569365	          0.38727982	         -1.92081024	          4.42123912	        -13.45679202	         15.23576972	         -5.06914232	        -13.46942228	          5.21976576	         35.02706404	         17.73659495	         86.51662706	         86.51662706	          0.28168676	          0.09858085	          0.07020745	          0.30325809	          0.19430027	          0.10388870	          0.05000134	          0.05000043	          0.05000031	          0.06215372	          0.09861499	          0.10697600	          0.06232456	          0.05000907	          0.05001238	          0.05000150	          0.29944047	          0.09429654	          0.05004214	          0.05002768	          0.05000830	          0.05000684	          0.36759253	          0.61348918	          0.05004152	          0.05000147	          0.05021128	          0.20315178	          0.05495609	          0.05058841	          0.05013996	          0.28261014	          0.38906752	          0.29385357	          0.29371913	          0.29885169	          0.39052865	          0.05000006	          0.05830304	          0.11861038	          0.05000032	          0.05000009	          0.05000032	          0.05000007	          0.05000029	          0.05000016	          0.05924718	          0.05920939	          0.05000029	          0.05924827	          0.05924821	          0.05000764	          0.06100183	          0.05006351	          0.22090355	          0.05000022	          0.05000078	          0.13461007	          0.30682380	          0.15912800	          0.15068026	          0.11518998	          0.05000021	          0.08303921	          0.08559895	          0.05000087	          0.13665548	          0.15809176	          0.05684452	          0.05000069	          0.15992393	          0.24520097	          0.13003960	          0.05955427	          0.15477940	          0.15102915	          0.13546954	          0.05000055	          0.05000069	          0.05211650	          0.05000004	          0.05000065	          0.05000030	          0.59142082	          0.28307143	          0.17110811	          0.28092241	          0.50482837	          0.24046346	          0.05924829	          0.10790874	          0.10163770	
          1.13198606	         -2.92568136	         -2.18302257	          5.21844892	          1.42027252	          0.91868575	         -0.00137259	        -17.35950198	         -1.39717859	          6.13474021	         28.75055206	          3.90692572	         -1.65695776	         -8.52012404	        -12.88583516	         -1.24167743	          5.40564825	          9.43079610	         -4.92564325	          0.52325683	         -0.01466008	         22.12446867	         -0.93037129	         -1.99142677	          0.60390915	         -1.98542229	          4.13422269	        -13.46501344	         15.56327743	         -5.89030502	        -13.47318583	          4.96250802	         36.17123598	         17.32355606	         86.51662706	         86.51662706	          0.23771746	          0.08319308	          0.05924859	          0.25592183	          0.16397139	          0.08767243	          0.05000601	          0.05000076	          0.05000088	          0.05245203	          0.08322211	          0.19290335	          0.08671551	          0.05936921	          0.05912153	          0.05924949	          0.25270003	          0.07960355	          0.05000212	          0.05000430	          0.05000305	          0.05000471	          0.31021394	          0.56657284	          0.05000050	          0.05007399	          0.05910116	          0.17144158	          0.13692310	          0.14946273	          0.14068305	          0.23849661	          0.32833674	          0.24798503	          0.25192557	          0.25220381	          0.32957101	          0.05000004	          0.05000015	          0.12810237	          0.05000014	          0.05000004	          0.05000021	          0.05738502	          0.05924862	          0.05369395	          0.05000002	          0.05000008	          0.11103708	          0.05000008	          0.05000009	          0.05000015	          0.05147995	          0.05000090	          0.18642207	          0.05000055	          0.05000398	          0.11359856	          0.25893100	          0.31229004	          0.21378793	          0.13346227	          0.05000106	          0.07008036	          0.11770913	          0.08375550	          0.11949379	          0.13341492	          0.05000011	          0.05000139	          0.36895372	          0.20692681	          0.10974136	          0.05925143	          0.15143675	          0.15800019	          0.13094094	          0.05000024	          0.05924901	          0.05000003	          0.07020068	          0.05000682	          0.05924875	          0.49910422	          0.32905145	          0.21091288	          0.23707250	          0.45646493	          0.20292882	          0.05000005	          0.09106492	          0.08577275	
          1.14308397	         -2.91785347	         -2.28332458	          5.47186965	          1.43721838	          0.91770055	         -0.00118237	        -17.11903154	         -1.69240612	          5.91514977	         27.98276580	          4.16506245	         -1.39597906	        -10.61041037	        -13.33580619	         -2.15715178	          4.91971909	         10.31137780	         -5.32130870	          0.31610901	         -0.02610615	         23.18080309	         -0.99373904	         -1.77993310	          0.83016021	         -2.03884624	          3.78229036	        -13.47157302	         15.83328733	         -6.73200071	        -13.48374805	          4.76409651	         37.28921480	         16.95529818	         86.51662706	         86.51662706	          0.33510268	          0.07020724	          0.05000035	          0.32737725	          0.13837668	          0.07398741	          0.05000199	          0.05000033	          0.05000025	          0.05000028	          0.07023207	          0.16279316	          0.07641579	          0.05010263	          0.05000239	          0.05000170	          0.21335741	          0.08181375	          0.05000216	          0.05000287	          0.05000165	          0.05000113	          0.26179179	          0.52978405	          0.05000028	          0.05000070	          0.05000021	          0.14468078	          0.11555058	          0.12613287	          0.11872360	          0.20126891	          0.27708561	          0.20927625	          0.21260180	          0.21283676	          0.27812744	          0.05000002	          0.09728038	          0.14998279	          0.05000018	          0.05000006	          0.05000017	          0.05530683	          0.05000032	          0.05000007	          0.24309571	          0.23482775	          0.29177574	          0.34463548	          0.21860273	          0.18926723	          0.06471102	          0.05000092	          0.15891607	          0.05000149	          0.05000612	          0.09586666	          0.21851373	          0.26354381	          0.18041726	          0.11611257	          0.05000082	          0.05922901	          0.09933601	          0.15323988	          0.14313596	          0.11258994	          0.05554339	          0.05000110	          0.31136265	          0.17462713	          0.23173676	          0.05000274	          0.12779867	          0.13333762	          0.11050208	          0.05000105	          0.05000119	          0.05180956	          0.05924298	          0.05000052	          0.05000109	          0.58344244	          0.33979898	          0.17799118	          0.36867354	          0.53962835	          0.17125458	          0.06501745	          0.10892837	          0.07238421	
